<?xml version="1.0" encoding="utf-8"?>
<!-- Generator: Adobe Illustrator 16.0.3, SVG Export Plug-In . SVG Version: 6.00 Build 0)  -->
<!DOCTYPE svg PUBLIC "-//W3C//DTD SVG 1.1//EN" "http://www.w3.org/Graphics/SVG/1.1/DTD/svg11.dtd">
<svg version="1.1" xmlns="http://www.w3.org/2000/svg" xmlns:xlink="http://www.w3.org/1999/xlink" x="0px" y="0px" width="500px"
	 height="500px" viewBox="0 0 500 500" enable-background="new 0 0 500 500" xml:space="preserve">
<g id="Capa_1" display="none">
	<g display="inline">
		<g>
			<path d="M100.101,330.565c-8.458-9.704-15.574-20.467-17.975-33.303c-2.469-13.199,2.004-26.452,7.568-38.241
				c11.114-23.55,27.396-44.629,45.964-62.764c19.18-18.732,41.915-34.532,67.173-43.822c22.385-8.233,47.718-10.973,69.563,0.245
				c18.977,9.744,30.871,28.804,34.217,49.516c4.029,24.953-6.156,49.246-20.413,69.189c-15.447,21.606-36.121,39.161-55.572,57.015
				c-20.802,19.093-41.862,38.007-60.047,59.685c-9.672,11.529-18.337,23.881-25.738,36.986c-1.587,2.812,2.732,5.33,4.317,2.523
				c27.85-49.317,73.751-83.515,113.667-122.356c18.302-17.811,35.249-37.725,44.234-61.955c7.421-20.011,7.135-42.381-1.419-61.953
				c-7.998-18.303-23.965-31.984-42.886-37.97c-22.453-7.104-47.161-1.754-68.325,7.02
				c-46.594,19.316-86.321,59.889-108.432,104.829c-6.367,12.94-10.902,26.835-8.992,41.4c1.891,14.419,10.213,26.768,19.56,37.491
				C98.688,336.536,102.209,332.984,100.101,330.565L100.101,330.565z"/>
		</g>
	</g>
	<g display="inline">
		<g>
			<path d="M51.022,163.022c11.537-11.227,23.616-21.854,36.32-31.744c-3.373,2.606-6.746,5.212-10.119,7.818
				c22.069-17.022,45.959-31.809,71.642-42.735c-3.981,1.68-7.962,3.36-11.944,5.04c19.053-8.028,39.048-14.332,59.559-17.221
				c-4.431,0.595-8.861,1.191-13.292,1.786c10.007-1.335,20.12-1.806,30.155-0.489c-4.431-0.595-8.861-1.19-13.292-1.786
				c5.407,0.785,10.661,2.096,15.71,4.202c-3.981-1.68-7.962-3.36-11.944-5.04c3.286,1.448,6.363,3.192,9.257,5.321
				c-3.374-2.606-6.747-5.212-10.12-7.818c2.874,2.222,5.402,4.73,7.647,7.586c-2.606-3.373-5.212-6.746-7.818-10.119
				c2.017,2.703,3.641,5.56,5.108,8.593c-1.68-3.981-3.36-7.963-5.041-11.944c1.248,2.967,2.067,5.907,2.497,9.097
				c-0.595-4.43-1.191-8.861-1.786-13.292c0.211,2.543,0.17,5.002-0.102,7.54c0.595-4.431,1.191-8.861,1.786-13.292
				c-0.62,4.108-1.797,7.964-3.393,11.795c1.68-3.981,3.36-7.963,5.041-11.944c-3.295,7.338-7.787,13.937-12.682,20.291
				c2.606-3.373,5.212-6.746,7.818-10.119c-15.826,20.208-34.899,37.558-53.368,55.28c-21.113,20.259-40.553,41.604-57.328,65.671
				c-9.043,12.973-15.9,27.292-21.049,42.243c-6.058,17.592-7.33,40.17-1.13,57.904c6.653,19.033,19.363,36.623,38.099,45.36
				c7.644,3.563,15.218,6.852,23.454,8.527c8.854,1.802,17.941,2.793,26.957,3.466c12.711,0.948,26.592-5.882,35.355-14.645
				c9.334-9.335,14.645-22.147,14.645-35.355s-5.31-26.021-14.645-35.355c-9.901-9.9-21.732-13.628-35.355-14.645
				c-2.922-0.218-5.834-0.496-8.74-0.873c4.431,0.595,8.861,1.19,13.292,1.786c-5.262-0.749-10.407-1.866-15.358-3.831
				c3.981,1.681,7.962,3.36,11.944,5.041c-2.852-1.228-5.484-2.695-7.958-4.576c3.373,2.606,6.746,5.212,10.119,7.818
				c-1.791-1.481-3.352-3.084-4.774-4.923c2.606,3.373,5.212,6.746,7.818,10.119c-1.175-1.674-2.145-3.392-2.99-5.254
				c1.68,3.981,3.36,7.962,5.041,11.943c-1.028-2.567-1.713-5.15-2.18-7.876c0.595,4.431,1.191,8.861,1.786,13.292
				c-0.499-4.136-0.478-8.189-0.024-12.328c-0.596,4.431-1.191,8.861-1.786,13.292c0.883-6.37,2.71-12.426,5.146-18.367
				c-1.68,3.981-3.36,7.963-5.041,11.944c5.541-12.864,13.476-24.415,21.979-35.479c-2.606,3.373-5.212,6.746-7.818,10.119
				c17.754-22.914,39.37-42.31,60.13-62.402c25.017-24.213,50.066-50.436,61.697-83.911c13.242-38.109-8.275-83.756-43.873-101.218
				c-15.987-7.842-30.268-10.994-48.063-12.396c-13.482-1.063-27.172,1.201-40.436,3.167C139.511-7.754,112.325,3.111,86.861,15.24
				C47.322,34.074,11.58,61.883-19.689,92.311c-19.527,19.002-19.067,51.644,0,70.711C-0.229,182.481,31.5,182.018,51.022,163.022
				L51.022,163.022z"/>
		</g>
	</g>
	<g display="inline">
		<g>
			<path d="M372.251,156.918c-23.254,19.956-42.388,45.427-57.527,71.955c-6.419,11.248-11.938,23.077-17.049,34.97
				c-7.19,16.734-12.641,32.667-13.65,51.083c-1.035,18.88,6.606,39.149,20.581,52.018c14.186,13.063,31.737,17.706,50.498,19.151
				c14.882,1.146,29.704-0.996,44.488-2.287c9.431-0.822,19.028-1.381,28.454-0.226c-3.102-0.417-6.202-0.833-9.304-1.25
				c3.215,0.439,6.372,1.094,9.389,2.313c-2.786-1.176-5.573-2.352-8.36-3.528c1.336,0.588,2.58,1.269,3.753,2.141
				c-2.361-1.824-4.723-3.648-7.084-5.473c0.734,0.601,1.383,1.238,1.979,1.977c-1.824-2.361-3.648-4.723-5.473-7.084
				c0.431,0.601,0.79,1.207,1.107,1.874c-1.177-2.787-2.353-5.573-3.528-8.36c0.36,0.896,0.59,1.779,0.729,2.735
				c-0.417-3.102-0.834-6.203-1.25-9.305c0.095,1.083,0.062,2.124-0.066,3.203c0.417-3.102,0.834-6.203,1.25-9.305
				c-0.304,1.853-0.857,3.592-1.563,5.329c1.176-2.787,2.352-5.574,3.528-8.361c-1.813,4.108-4.044,7.813-6.779,11.374
				c1.824-2.361,3.648-4.723,5.473-7.084c-6.381,7.933-14.184,14.482-22.197,20.699c2.361-1.824,4.723-3.648,7.084-5.473
				c-21.097,16.209-43.836,31.788-61.814,51.579c-12.816,14.109-13.968,35.529,0,49.498c13,13,36.667,14.125,49.498,0
				c11.589-12.759,25.553-22.915,38.666-34c-2.361,1.824-4.723,3.648-7.084,5.473c20.914-16.071,46.495-31.575,57.597-56.735
				c4.02-9.11,5.759-14.185,6.468-24.333c0.546-7.811-2.352-16.507-6.065-23.235c-6.387-11.574-18.793-19.119-31.252-22.418
				c-30.681-8.122-61.873,3.704-92.789-0.264c3.102,0.417,6.203,0.833,9.305,1.25c-4.208-0.622-8.268-1.598-12.217-3.192
				c2.787,1.176,5.573,2.353,8.36,3.528c-2.67-1.186-5.112-2.601-7.432-4.381c2.361,1.824,4.723,3.648,7.084,5.473
				c-1.638-1.376-3.087-2.846-4.443-4.5c1.824,2.361,3.648,4.723,5.473,7.084c-1.652-2.22-3.043-4.519-4.188-7.039
				c1.177,2.787,2.353,5.573,3.528,8.36c-1.04-2.604-1.752-5.218-2.227-7.98c0.416,3.102,0.833,6.203,1.25,9.305
				c-0.649-4.84-0.505-9.606,0.122-14.44c-0.416,3.102-0.833,6.202-1.25,9.304c1.455-9.547,4.589-18.651,8.324-27.527
				c-1.177,2.787-2.353,5.574-3.528,8.361c10.166-23.659,22.389-46.171,38.028-66.685c-1.824,2.361-3.648,4.723-5.474,7.083
				c9.294-12.022,19.534-23.253,31.076-33.157c14.489-12.434,12.715-36.782,0-49.497c-6.534-6.534-15.504-10.251-24.749-10.251
				C387.164,146.667,379.51,150.688,372.251,156.918L372.251,156.918z"/>
		</g>
	</g>
	<g display="inline">
		<g>
			<path d="M369.652,90.542c10.063-3.725,20.067-7.586,30.504-10.162c1.333-0.329,2.678-0.606,4.022-0.88
				c0.893-0.182,5.426-0.835,0.537-0.202c2.376-0.308,4.769-0.383,7.16-0.296c3.931,0.143-4.126-0.82-0.479-0.048
				c3.172,0.672-2.797-1.63,0.991,0.292c2.991,1.518-1.735-1.94-2.247-2.684c-0.974-1.7-1.458-3.531-1.454-5.493
				c0.579-3.15,0.656-3.79,0.231-1.919c-0.84,3.491,1.902-3.728,0.074-0.281c-0.567,1.071-1.265,2.077-1.939,3.081
				c-0.413,0.614-3.085,4.094-0.452,0.725c-0.865,1.107-1.758,2.194-2.643,3.285c-0.912,1.181-1.824,2.361-2.736,3.542
				c0.963-1.258,0.801-1.074-0.485,0.551c-1.094,1.357-2.231,2.678-3.367,4c-2.667,3.104-5.48,6.08-8.326,9.02
				c-10.203,10.544-21.331,20.153-32.067,30.14c-13.738,12.78-30.469,24.191-37.758,42.091c-2.571,6.314-1.015,13.692,2.037,19.46
				c4.215,7.964,13.354,11.234,21.79,11.531c10.008,0.353,20.898-4.132,30.173-7.506c29.296-10.659,56.442-26.179,84.614-39.343
				c8.642-4.038,10.762-16.289,6.277-23.943c-5.146-8.784-15.301-10.316-23.943-6.278c-13.969,6.528-27.661,13.623-41.494,20.431
				c-14.627,7.199-25.503,12.219-39.929,17.221c-3.601,1.249-7.279,2.391-10.94,3.449c-1.508,0.436-8.691,1.547-2.758,0.877
				c-0.983,0.111-1.966,0.094-2.952,0.06c3.125,0.544,3.81,0.593,2.055,0.146c3.144,0.833,5.586,2.73,7.329,5.691
				c0.56,0.756,1.498,7.32,1.513,5.484c-0.039,4.855-0.686,3.969-0.021,2.026c-1.976,5.779,0.002,0.675,1.183-1.001
				c-3.336,4.737,0.917-0.935,1.933-2.038c1.783-1.937,3.683-3.767,5.595-5.576c16.333-15.443,33.68-29.792,49.639-45.664
				c4.972-4.945,9.709-10.116,14.169-15.527c1.684-2.043,3.289-4.162,4.9-6.26c-2.187,2.846,0.699-0.787,0.963-1.118
				c2.544-3.196,5.091-6.418,7.273-9.876c9.06-14.353,4.97-32.837-11.22-39.756c-21.977-9.393-46.139,1.257-67.056,9
				c-8.938,3.309-14.917,11.731-12.223,21.527C350.491,86.919,360.698,93.856,369.652,90.542L369.652,90.542z"/>
		</g>
	</g>
	<g display="inline">
		<g>
			<path d="M71,383.667c0.12,15.245,4.459,30.31,10.682,44.113c6.409,14.218,16.947,27.461,32.109,32.621
				c7.421,2.525,14.982,1.322,22.481,0.03c7.547-1.3,15.036-2.922,22.399-5.03c14.921-4.271,33.369-11.562,40.296-26.688
				c2.27-4.956,1.458-10.726-3.587-13.682c-4.347-2.546-11.412-1.369-13.682,3.588c-2.362,5.158-5.092,7.191-10.283,10.246
				c-6.029,3.548-12.365,5.619-19.26,7.594c-6.32,1.81-12.77,3.159-19.233,4.339c-1.277,0.232-2.556,0.45-3.835,0.667
				c-0.588,0.099-1.176,0.196-1.764,0.292c-2.838,0.467,2.272-0.17-1.083,0.147c-3.758,0.354-3.597,0.271-7.132-0.79
				c-1.108-0.419-1.218-0.428-0.328-0.025c-0.594-0.264-1.179-0.547-1.754-0.85c-1.175-0.594-2.279-1.319-3.369-2.054
				c-0.957-0.691-1.083-0.78-0.381-0.268c-0.526-0.436-1.042-0.885-1.545-1.348c-1.306-1.169-2.495-2.463-3.656-3.772
				c-3.425-3.861-7.026-10.458-9.603-16.174c-2.075-4.603-4.123-11.445-5.474-17.176c-1.533-6.506-1.947-9.146-2-15.782
				C90.898,370.775,70.898,370.766,71,383.667L71,383.667z"/>
		</g>
	</g>
	<g display="inline">
		<g>
			<path d="M174.024,397.658c5.564,26.293,13.281,51.313,30.571,72.413c3.459,4.222,10.575,3.567,14.143,0
				c4.137-4.138,3.451-9.931,0-14.143c-14.902-18.186-20.662-41.068-25.429-63.587C190.639,379.727,171.361,385.078,174.024,397.658
				L174.024,397.658z"/>
		</g>
	</g>
</g>
<g id="Capa_2">
	<g>
		<g>
			<path d="M45.357,112.325c33.146,84.28,62.058,170.121,92.667,255.334c1.841,5.125,6.742,8.514,12.301,6.984
				c4.953-1.363,8.829-7.168,6.984-12.301C126.7,277.13,97.788,191.288,64.642,107.009c-1.993-5.068-6.623-8.546-12.301-6.984
				C47.506,101.354,43.359,107.245,45.357,112.325L45.357,112.325z"/>
		</g>
	</g>
	<g>
		<g>
			<path d="M33.634,167.953c-4.977-8.831,2.504-19.909,7.527-27.238c6.708-9.787,15.188-18.406,24.19-26.081
				c19.145-16.322,44.19-28.492,69.773-27.572c1.016,0.037,2.03,0.115,3.044,0.195c0.205,0.016,3.396,0.409,1.135,0.087
				c1.732,0.247,3.444,0.62,5.139,1.051c1.534,0.39,3.03,0.912,4.501,1.49c-2.364-0.929,1.88,1.121,2.666,1.624
				c0.484,0.309,2.279,1.747,0.116,0.013c0.503,0.404,0.973,0.848,1.441,1.291c0.46,0.436,0.883,0.909,1.305,1.381
				c1.487,1.664-1.317-1.856-0.029-0.047c0.725,1.018,1.322,2.122,1.875,3.24c0.996,2.014-0.829-2.174-0.03-0.055
				c0.304,0.806,0.541,1.636,0.769,2.465c0.213,0.772,0.912,5.065,0.51,1.951c0.181,1.402,0.248,2.816,0.286,4.228
				c0.041,1.487-0.021,2.975-0.108,4.458c-0.045,0.771-0.12,1.54-0.194,2.309c-0.279,2.896,0.109-0.473-0.161,1.297
				c-1.117,7.296-3.287,14.421-5.748,21.363c-6.165,17.389-15.995,35.744-25.767,53.279c-7.503,13.465-16.041,26.671-21.853,40.994
				c-3.611,8.898,7.758,14.756,14.69,11.293c22.559-11.266,37.71-33.155,57.223-48.509c0.557-0.438,3.713-2.883,1.39-1.091
				c1.18-0.91,2.366-1.81,3.555-2.708c3.101-2.341,6.239-4.631,9.401-6.887c7.379-5.264,14.949-10.262,22.721-14.928
				c3.954-2.374,7.982-4.622,12.068-6.76c2.014-1.054,4.055-2.054,6.106-3.032c2.13-1.015,4.538-2.05,5.696-2.516
				c3.819-1.536,7.734-2.822,11.723-3.843c1.83-0.468,3.686-0.822,5.55-1.12c-2.294,0.367,0.577-0.02,0.89-0.046
				c1.131-0.095,2.268-0.108,3.402-0.104c0.816,0.003,1.631,0.066,2.445,0.131c-2.563-0.204-0.059,0.012,0.451,0.112
				c0.859,0.17,4.928,1.777,2.578,0.682c0.668,0.312,1.299,0.699,1.926,1.085c2.109,1.3-1.557-1.397,0.336,0.242
				c0.619,0.536,1.17,1.15,1.723,1.751c-1.285-1.395,0.664,1.176,0.902,1.624c-1.037-1.948,0.035,0.289,0.168,0.749
				c0.748,2.596-0.068-2.07,0.168,0.645c0.074,0.855,0.035,1.717-0.002,2.572c-0.119,2.847,0.422-2.003-0.127,0.875
				c-0.357,1.873-0.984,3.689-1.654,5.47c0.664-1.767-0.625,1.316-0.633,1.334c-0.613,1.28-1.309,2.52-2.01,3.753
				c-6.332,11.135-15.496,20.372-24.969,29.532c-12.192,11.79-24.331,23.646-36.652,35.302
				c-33.902,32.076-69.114,62.729-103.161,94.646c-9.426,8.838,4.745,22.953,14.143,14.143
				c23.322-21.865,47.169-43.156,70.798-64.686c21.477-19.57,42.059-40.037,63.292-59.848
				c13.223-12.336,26.869-25.643,35.357-41.812c4.422-8.423,6.949-17.799,4.734-27.243c-2.16-9.216-9.676-15.508-17.988-19.011
				c-12.367-5.213-27.972-0.538-39.71,4.183c-15.153,6.094-29.234,14.448-42.747,23.56c-10.523,7.095-20.823,14.685-30.604,22.778
				c-16.355,13.534-29.266,32.059-48.584,41.706c4.897,3.766,9.793,7.529,14.69,11.293c0.667-1.643-1.06,2.453-0.315,0.748
				c0.196-0.449,0.402-0.895,0.607-1.338c0.457-0.99,0.941-1.967,1.428-2.939c1.26-2.521,2.602-5.002,3.953-7.475
				c3.28-6.002,6.687-11.936,10.051-17.891c8.123-14.377,16.088-28.862,23.004-43.866c10.746-23.313,27.667-62.354,4.807-84.001
				C157.826,69.689,144.992,67.271,133,67c-21.1-0.476-41.844,7.125-59.813,17.684c-17.6,10.342-32.812,24.34-45.245,40.454
				c-11.444,14.832-21.845,34.688-11.577,52.91C22.695,189.281,39.974,179.203,33.634,167.953L33.634,167.953z"/>
		</g>
	</g>
	<g>
		<g>
			<path d="M192.69,285.675c-2.507,15.15-4.125,30.547-1.93,45.834c2.389,16.631,12.704,32.393,31.301,31.766
				c32.479-1.096,29.678-51.939,21.914-72.932c-1.889-5.107-6.705-8.525-12.301-6.984c-4.916,1.352-8.877,7.184-6.984,12.301
				c1.499,4.053,2.339,8.328,3.021,12.584c0.253,1.578,0.427,3.156,0.682,6.602c0.242,3.268,0.291,6.545,0.206,9.82
				c-0.034,1.301-0.121,2.6-0.218,3.896c-0.052,0.639-0.113,1.277-0.183,1.914c-0.318,3.107,0.333-1.953-0.167,1.072
				c-0.246,1.484-0.594,2.949-0.98,4.404c-0.159,0.6-1.641,4.564-0.691,2.379c-0.419,0.967-0.939,1.881-1.48,2.783
				c-0.632,0.918-0.546,0.857,0.258-0.184c-0.447,0.578-0.964,1.094-1.483,1.604c-0.826,0.719-0.708,0.645,0.356-0.219
				c-0.58,0.422-1.222,0.744-1.86,1.064c2.861-1.434-3.159,0.152-0.089-0.105c-0.459,0.039-3.894-0.24-1.737,0.084
				c-0.758-0.113-4.534-1.512-2.691-0.635c-0.481-0.23-3.157-2.236-1.442-0.797c-0.42-0.369-0.821-0.76-1.205-1.168
				c-1.903-1.932,1.021,1.611-0.554-0.656c-2.731-3.932-3.945-9.947-4.386-14.404c-0.667-6.74-0.414-13.57,0.118-20.311
				c0.228-2.889,0.554-5.77,0.919-8.645c-0.299,2.357,0.255-1.727,0.34-2.291c0.174-1.154,0.362-2.309,0.552-3.461
				c0.889-5.373-1.322-10.742-6.984-12.301C200.157,277.36,193.581,280.29,192.69,285.675L192.69,285.675z"/>
		</g>
	</g>
	<g>
		<g>
			<path d="M250.024,292.325c2.929,13.588,2.333,27.525,2.309,41.342c-0.02,11.18,17,13.771,19.643,2.658
				c2.158-9.074,4.463-18.102,7.822-26.818c1.426-3.701,4.08-8.736,6.859-12.574c-0.994,1.373,1.061-1.092,1.047-1.078
				c0.289-0.313,3.098-2.607,1.566-1.512c0.734-0.523,1.535-0.938,2.338-1.344c-2.318,1.176,2.83-0.293,0.059,0.002
				c5.418-0.576,10-4.113,10-10c0-5.016-4.568-10.578-10-10c-26.527,2.818-33.889,36.609-38.977,58.008
				c6.547,0.885,13.096,1.771,19.643,2.658c0.027-15.672,0.301-31.244-3.023-46.658
				C266.593,274.403,247.313,279.749,250.024,292.325L250.024,292.325z"/>
		</g>
	</g>
	<g>
		<g>
			<path d="M336.991,278.69c-16.418-5.344-32.77,4.461-42.635,17.172c-9.484,12.221-17.814,30.408-12.105,46.025
				c6.701,18.328,31.641,23,45.646,10.018c6.166-5.713,8.922-14.596,10.787-22.521c0.904-3.84,1.602-7.727,2.42-11.586
				c0.383-1.799,0.814-3.586,1.297-5.363c0.225-0.826,0.486-1.643,0.752-2.457c0.865-2.65-0.17,0.098,0.482-1.264
				c-5.236,0.674-10.471,1.35-15.707,2.023c1.729,1.338,2.527,2.336,2.996,3.063c1.51,2.34,1.621,3.066,2.441,5.785
				c1.52,5.035,1.922,9.424,2.199,14.668c0.545,10.332-0.027,20.676-3.021,30.613c-5.939,19.717-22.398,30.689-42.885,27.158
				c-5.367-0.926-10.752,1.348-12.301,6.984c-1.338,4.861,1.605,11.373,6.984,12.301c14.361,2.477,28.666,1.326,41.473-6.094
				c12.365-7.162,20.396-19.443,25.199-32.584c4.42-12.092,5.082-25.621,4.551-38.379c-0.529-12.676-2.686-29.285-13.494-37.658
				c-4.656-3.605-12.637-4.383-15.705,2.025c-2.852,5.955-4.232,12.195-5.527,18.627c-0.652,3.25-1.324,6.492-2.146,9.701
				c-0.865,3.381-1.771,5.818-2.521,7.316c-0.295,0.588-2.623,3.936-1.279,2.281c-0.359,0.424-0.738,0.83-1.135,1.219
				c-1.844,1.885,1.625-0.98-0.572,0.486c-0.477,0.299-0.969,0.57-1.475,0.814c1.959-1.01-0.561,0.047-0.947,0.146
				c-1.158,0.225-1.229,0.244-0.211,0.057c-1.066,0.1-2.145,0.041-3.211-0.01c-1.34-0.115-1.533-0.135-0.576-0.059
				c-0.848-0.148-1.674-0.393-2.496-0.641c-1.086-0.395-1.029-0.352,0.168,0.129c-0.684-0.307-1.318-0.705-1.951-1.105
				c2.131,1.346-0.541-0.604-1.104-1.254c2.289,2.648-1.193-3.023,0.154,0.24c-0.457-1.107-0.73-2.285-0.967-3.457
				c0.561,2.779-0.016-1.129-0.023-1.9c-0.006-0.627,0.412-4.73,0.051-2.227c0.207-1.426,0.541-2.832,0.896-4.229
				c0.373-1.457,0.857-2.881,1.365-4.295c0.211-0.576,0.436-1.15,0.668-1.719c-0.781,1.955,0.451-0.875,0.525-1.029
				c1.375-2.871,3.055-5.588,4.875-8.193c0.701-0.939,0.754-1.031,0.158-0.271c0.582-0.752,1.203-1.473,1.824-2.193
				c1.023-1.186,2.129-2.295,3.256-3.381c2.676-2.582,2.406-2.338,5.902-4.354c0.502-0.283,1.014-0.551,1.531-0.805
				c2.504-1.273-1.859,0.65,0.738-0.313c1.297-0.48,2.646-0.797,4.002-1.059c-2.467,0.477,1.504,0.029,2.238,0.053
				c2.713,0.09-2.068-0.445,0.631,0.084c0.84,0.164,1.654,0.43,2.467,0.693C343.976,301.979,349.2,282.665,336.991,278.69
				L336.991,278.69z"/>
		</g>
	</g>
	<g>
		<g>
			<path d="M369.001,324.333c9.711,0.75,19.619-2.301,27.25-8.217c8.818-6.84,7.938-20.531,0.662-27.928
				c-6.307-6.412-17.115-8.457-25.738-7.518c-10.711,1.168-18.992,7.533-24.539,16.604c-9.928,16.23-9.449,41.592,4.475,55.387
				c16.508,16.357,43.6,11.609,63.215,4.648c5.131-1.822,8.51-6.758,6.984-12.301c-1.367-4.969-7.16-8.809-12.301-6.984
				c-11.813,4.191-27.756,8.986-39.496,3.338c-10.652-5.125-10.967-17.887-8.146-28.059c1.377-4.969,4.047-9.201,7.811-11.57
				c1.855-1.168,2.813-1.156,3.91-1.236c1.346-0.096,2.699-0.027,4.043,0.057c1.232,0.117,1.375,0.133,0.426,0.049
				c1.016,0.168,2.006,0.445,2.994,0.725c1.139,0.42,1.271,0.436,0.396,0.049c0.578,0.266,1.137,0.564,1.682,0.893
				c0.982,0.65,1.031,0.672,0.143,0.063c0.789,0.842,0.814,0.828,0.074-0.041c1.174,1.717-0.113-2.295-0.166,0.018
				c-0.084-0.473,0.029-0.896,0.344-1.27c-0.941,2.053,0.83-0.646-0.914,0.936c1.381-1.252-2.576,1.107-1.266,0.582
				c-1.432,0.574-2.939,0.951-4.434,1.311c-2.268,0.547-4.186,0.717-7.408,0.467c-5.443-0.42-10,4.867-10,10
				C359.001,320.103,363.567,323.913,369.001,324.333L369.001,324.333z"/>
		</g>
	</g>
	<g>
		<g>
			<path d="M413.667,290.333c2.027,18.652,0.82,37.586,5.023,55.992c2.582,11.303,19.344,8.357,19.643-2.658
				c0.365-13.393,0.9-24.551,4.842-37.041c3.545-11.236,10.213-18.551,21.826-18.959c12.859-0.453,12.902-20.455,0-20
				c-18.783,0.662-32.219,11.615-39.244,28.615c-6.127,14.826-6.992,31.531-7.424,47.385c6.549-0.887,13.096-1.773,19.643-2.658
				c-3.787-16.588-2.479-33.842-4.309-50.676c-0.59-5.416-4.104-10-10-10C418.663,280.333,413.075,284.903,413.667,290.333
				L413.667,290.333z"/>
		</g>
	</g>
	<g>
		<g>
			<path d="M269.667,259.667c60.074-8.018,120.83-8.656,181.334-7.334c12.904,0.283,12.877-19.719,0-20
				c-60.504-1.322-121.26-0.684-181.334,7.334c-5.402,0.721-10,4.002-10,10C259.667,254.571,264.249,260.39,269.667,259.667
				L269.667,259.667z"/>
		</g>
	</g>
	<g>
		<g>
			<path d="M275.976,240.991c3.512-19.033,15.115-35.592,30.641-46.95c16.146-11.814,34.451-16.402,54.254-14.3
				c38.295,4.065,68.285,36.076,84.162,68.973c2.367,4.908,9.262,6.176,13.682,3.588c4.977-2.916,5.957-8.773,3.588-13.682
				c-19.512-40.429-55.803-73.324-101.432-78.879c-46.686-5.684-95.584,29.332-104.18,75.934
				c-0.988,5.355,1.395,10.764,6.984,12.301C268.583,249.327,274.987,246.356,275.976,240.991L275.976,240.991z"/>
		</g>
	</g>
	<g>
		<g>
			<path d="M311.667,223.333c6.447,0,6.447-10,0-10C305.218,213.333,305.218,223.333,311.667,223.333L311.667,223.333z"/>
		</g>
	</g>
	<g>
		<g>
			<path d="M331.667,198c6.447,0,6.447-10,0-10C325.218,188,325.218,198,331.667,198L331.667,198z"/>
		</g>
	</g>
	<g>
		<g>
			<path d="M362.333,195.333c6.449,0,6.449-10,0-10C355.886,185.333,355.886,195.333,362.333,195.333L362.333,195.333z"/>
		</g>
	</g>
	<g>
		<g>
			<path d="M401.001,215.333c6.447,0,6.447-10,0-10C394.552,205.333,394.552,215.333,401.001,215.333L401.001,215.333z"/>
		</g>
	</g>
	<g>
		<g>
			<path d="M370.333,214c6.449,0,6.449-10,0-10C363.886,204,363.886,214,370.333,214L370.333,214z"/>
		</g>
	</g>
	<g>
		<g>
			<path d="M339.667,219.333c6.447,0,6.447-10,0-10C333.218,209.333,333.218,219.333,339.667,219.333L339.667,219.333z"/>
		</g>
	</g>
</g>
</svg>
